<?xml version="1.0" encoding="utf-8"?>
<!-- Generator: Adobe Illustrator 27.2.0, SVG Export Plug-In . SVG Version: 6.00 Build 0)  -->
<svg version="1.1" id="Layer_1" xmlns="http://www.w3.org/2000/svg" xmlns:xlink="http://www.w3.org/1999/xlink" x="0px" y="0px"
	 viewBox="0 0 217.7 217.7" style="enable-background:new 0 0 217.7 217.7;" xml:space="preserve">
<style type="text/css">
	.st0{fill:#1A1A1A;}
</style>
<g>
	<path class="st0" d="M125.4,89.3c5.6,0,10.2-4.6,10.2-10.2c0-5.6-4.6-10.2-10.2-10.2c-5.6,0-10.2,4.6-10.2,10.2
		C115.1,84.7,119.7,89.3,125.4,89.3z"/>
	<polygon class="st0" points="129.9,96.7 120,113.8 123.9,120.6 129.9,110.3 148.2,142.1 136.3,142.1 140.2,148.9 160,148.9 	"/>
	<path class="st0" d="M57.7,148.9h80.6L98,79.1L57.7,148.9z M69.5,142.1L98,92.7l28.5,49.4H69.5z"/>
	<path class="st0" d="M160.6,57.1c-13.8-13.8-32.2-21.4-51.8-21.4s-37.9,7.6-51.8,21.4s-21.4,32.2-21.4,51.8s7.6,37.9,21.4,51.8
		c13.8,13.8,32.2,21.4,51.8,21.4s37.9-7.6,51.8-21.4c13.8-13.8,21.4-32.2,21.4-51.8S174.4,70.9,160.6,57.1z M108.8,175.2
		c-36.7,0-66.4-29.7-66.4-66.4s29.7-66.4,66.4-66.4s66.4,29.7,66.4,66.4S145.5,175.2,108.8,175.2z"/>
</g>
</svg>
