<?xml version="1.0" encoding="utf-8"?>
<!-- Generator: Adobe Illustrator 27.2.0, SVG Export Plug-In . SVG Version: 6.00 Build 0)  -->
<svg version="1.1" id="Layer_1" xmlns="http://www.w3.org/2000/svg" xmlns:xlink="http://www.w3.org/1999/xlink" x="0px" y="0px"
	 viewBox="0 0 217.69 217.69" style="enable-background:new 0 0 217.69 217.69;" xml:space="preserve">
<style type="text/css">
	.st0{fill:#1A1A1A;}
</style>
<g>
	<path class="st0" d="M160.61,57.08c-13.83-13.83-32.21-21.44-51.77-21.44c-19.55,0-37.93,7.61-51.76,21.44
		c-13.82,13.82-21.44,32.2-21.44,51.76c0,19.55,7.62,37.93,21.44,51.76c13.83,13.83,32.21,21.44,51.76,21.44
		c19.56,0,37.94-7.61,51.77-21.44c13.82-13.83,21.44-32.21,21.44-51.76C182.05,89.28,174.43,70.9,160.61,57.08z M108.84,175.2
		c-36.65,0-66.36-29.71-66.36-66.36c0-36.66,29.71-66.37,66.36-66.37c36.66,0,66.37,29.71,66.37,66.37
		C175.21,145.49,145.5,175.2,108.84,175.2z"/>
	<polygon class="st0" points="159.99,148.87 57.7,148.87 97.96,79.15 119.02,115.63 129.92,96.75 	"/>
	<path class="st0" d="M135.57,78.99c0,5.62-4.57,10.18-10.19,10.18c-5.61,0-10.18-4.56-10.18-10.18s4.57-10.19,10.18-10.19
		C131,68.8,135.57,73.37,135.57,78.99z"/>
</g>
</svg>
