<?xml version="1.0" encoding="utf-8"?>
<!-- Generator: Adobe Illustrator 27.2.0, SVG Export Plug-In . SVG Version: 6.00 Build 0)  -->
<svg version="1.1" id="Layer_1" xmlns="http://www.w3.org/2000/svg" xmlns:xlink="http://www.w3.org/1999/xlink" x="0px" y="0px"
	 viewBox="0 0 24 24" style="enable-background:new 0 0 24 24;" xml:space="preserve">
<style type="text/css">
	.st0{fill:none;stroke:#171732;stroke-linecap:round;stroke-linejoin:round;}
	.st1{fill:#171732;}
</style>
<g>
	<circle class="st0" cx="12" cy="12" r="8.8"/>
	<g>
		<polygon class="st1" points="14.5,10.6 13.3,12.6 13.8,13.4 14.5,12.2 17.1,16.7 18,16.7 		"/>
		<polygon class="st1" points="10.7,8.5 6,16.7 6.9,16.7 7.4,15.9 7.4,15.9 10.7,10.1 10.7,10.1 13.2,14.4 14.5,16.7 15.4,16.7 
			13.7,13.6 		"/>
		<path class="st1" d="M13.9,9.7c0.7,0,1.2-0.5,1.2-1.2c0-0.7-0.5-1.2-1.2-1.2c-0.7,0-1.2,0.5-1.2,1.2C12.7,9.2,13.3,9.7,13.9,9.7z
			 M13.9,8.1c0.2,0,0.4,0.2,0.4,0.4c0,0.2-0.2,0.4-0.4,0.4s-0.4-0.2-0.4-0.4C13.5,8.3,13.7,8.1,13.9,8.1z"/>
	</g>
</g>
</svg>
