<?xml version="1.0" encoding="utf-8"?>
<!-- Generator: Adobe Illustrator 27.2.0, SVG Export Plug-In . SVG Version: 6.00 Build 0)  -->
<svg version="1.1" id="Layer_1" xmlns="http://www.w3.org/2000/svg" xmlns:xlink="http://www.w3.org/1999/xlink" x="0px" y="0px"
	 viewBox="0 0 217.7 217.7" style="enable-background:new 0 0 217.7 217.7;" xml:space="preserve">
<style type="text/css">
	.st0{fill:#1A1A1A;}
</style>
<g>
	<path class="st0" d="M125.4,89.2c5.6,0,10.2-4.6,10.2-10.2c0-5.6-4.6-10.2-10.2-10.2c-5.6,0-10.2,4.6-10.2,10.2
		C115.2,84.6,119.8,89.2,125.4,89.2z M125.4,75.5c1.9,0,3.5,1.6,3.5,3.5c0,1.9-1.6,3.5-3.5,3.5s-3.5-1.6-3.5-3.5
		C121.9,77.1,123.5,75.5,125.4,75.5z"/>
	<path class="st0" d="M129.9,96.8L119,115.6L98,79.2l-40.3,69.7h42.1h38.4H160L129.9,96.8z M103.7,142.2H69.3L98,92.5l17.5,30.4
		l3.5,6.1l0,0l7.6,13.2H103.7z M134.3,142.2l-11.5-19.9l7-12.2l18.5,32.1H134.3z"/>
	<path class="st0" d="M160.6,57.1c-13.8-13.8-32.2-21.4-51.8-21.4s-37.9,7.6-51.8,21.4c-13.8,13.8-21.4,32.2-21.4,51.8
		s7.6,37.9,21.4,51.8S89.3,182,108.8,182s37.9-7.6,51.8-21.4s21.4-32.2,21.4-51.8S174.4,70.9,160.6,57.1z M108.8,175.2
		c-36.7,0-66.4-29.7-66.4-66.4s29.7-66.4,66.4-66.4c36.7,0,66.4,29.7,66.4,66.4S145.5,175.2,108.8,175.2z"/>
</g>
</svg>
