<?xml version="1.0" encoding="utf-8"?>
<!-- Generator: Adobe Illustrator 27.2.0, SVG Export Plug-In . SVG Version: 6.00 Build 0)  -->
<svg version="1.1" id="Layer_1" xmlns="http://www.w3.org/2000/svg" xmlns:xlink="http://www.w3.org/1999/xlink" x="0px" y="0px"
	 viewBox="0 0 217.7 217.7" style="enable-background:new 0 0 217.7 217.7;" xml:space="preserve">
<style type="text/css">
	.st0{fill:#1A1A1A;}
</style>
<g>
	<polygon class="st0" points="129.9,96.6 120,113.8 123.8,120.5 129.8,110.1 152.2,148.8 160,148.8 	"/>
	<polygon class="st0" points="98,79.1 57.7,148.8 65.6,148.8 69.5,142 69.5,142 98,92.7 98,92.7 119,129 130.4,148.8 138.2,148.8 
		122.9,122.2 	"/>
	<path class="st0" d="M125.3,89.2c5.6,0,10.2-4.6,10.2-10.2c0-5.6-4.6-10.2-10.2-10.2c-5.6,0-10.2,4.6-10.2,10.2
		C115.2,84.7,119.7,89.2,125.3,89.2z M125.3,75.5c1.9,0,3.5,1.6,3.5,3.5c0,1.9-1.6,3.5-3.5,3.5c-1.9,0-3.5-1.6-3.5-3.5
		C121.9,77.1,123.4,75.5,125.3,75.5z"/>
	<path class="st0" d="M160.6,57.1c-13.8-13.8-32.2-21.4-51.7-21.4s-37.9,7.6-51.7,21.4c-13.8,13.8-21.4,32.2-21.4,51.7
		s7.6,37.9,21.4,51.7c13.8,13.8,32.2,21.4,51.7,21.4s37.9-7.6,51.7-21.4c13.8-13.8,21.4-32.2,21.4-51.7S174.4,70.9,160.6,57.1z
		 M108.8,175.2c-36.6,0-66.3-29.7-66.3-66.3s29.7-66.3,66.3-66.3s66.3,29.7,66.3,66.3S145.5,175.2,108.8,175.2z"/>
</g>
</svg>
