<?xml version="1.0" encoding="utf-8"?>
<!-- Generator: Adobe Illustrator 27.2.0, SVG Export Plug-In . SVG Version: 6.00 Build 0)  -->
<svg version="1.1" id="Layer_1" xmlns="http://www.w3.org/2000/svg" xmlns:xlink="http://www.w3.org/1999/xlink" x="0px" y="0px"
	 viewBox="0 0 217.69 217.69" style="enable-background:new 0 0 217.69 217.69;" xml:space="preserve">
<style type="text/css">
	.st0{fill:#1A1A1A;}
</style>
<g>
	<path class="st0" d="M160.61,57.08c-13.83-13.83-32.21-21.44-51.77-21.44c-19.55,0-37.93,7.61-51.76,21.44
		c-13.82,13.82-21.44,32.2-21.44,51.76c0,19.55,7.62,37.93,21.44,51.76c13.83,13.83,32.21,21.44,51.76,21.44
		c19.56,0,37.94-7.61,51.77-21.44c13.82-13.83,21.44-32.21,21.44-51.76C182.05,89.28,174.43,70.9,160.61,57.08z M125.38,68.8
		c5.62,0,10.19,4.57,10.19,10.19S131,89.17,125.38,89.17c-5.61,0-10.18-4.56-10.18-10.18S119.77,68.8,125.38,68.8z M57.7,148.87
		l40.26-69.72l21.06,36.48l10.9-18.88l30.07,52.12H57.7z"/>
</g>
</svg>
