<?xml version="1.0" encoding="utf-8"?>
<!-- Generator: Adobe Illustrator 27.2.0, SVG Export Plug-In . SVG Version: 6.00 Build 0)  -->
<svg version="1.1" id="Layer_1" xmlns="http://www.w3.org/2000/svg" xmlns:xlink="http://www.w3.org/1999/xlink" x="0px" y="0px"
	 viewBox="0 0 24 24" style="enable-background:new 0 0 24 24;" xml:space="preserve">
<style type="text/css">
	.st0{fill:none;stroke:#171732;stroke-linecap:round;stroke-linejoin:round;}
	.st1{fill:#171732;}
</style>
<g>
	<circle class="st0" cx="12" cy="12" r="8.8"/>
	<g>
		<path class="st1" d="M13.9,9.7c0.7,0,1.2-0.5,1.2-1.2c0-0.7-0.5-1.2-1.2-1.2c-0.7,0-1.2,0.5-1.2,1.2C12.7,9.2,13.3,9.7,13.9,9.7z
			 M13.9,8.1c0.2,0,0.4,0.2,0.4,0.4c0,0.2-0.2,0.4-0.4,0.4s-0.4-0.2-0.4-0.4C13.5,8.3,13.7,8.1,13.9,8.1z"/>
		<path class="st1" d="M14.5,10.6l-1.3,2.2l-2.5-4.3L6,16.7h4.9h4.5H18L14.5,10.6z M11.4,15.9h-4l3.4-5.8l2.1,3.6l0.4,0.7l0,0
			l0.9,1.5H11.4z M15,15.9l-1.3-2.3l0.8-1.4l2.2,3.8H15z"/>
	</g>
</g>
</svg>
